<svg id="svg" xmlns="http://www.w3.org/2000/svg" xmlns:xlink="http://www.w3.org/1999/xlink" width="400" height="86.66666666666667" viewBox="0, 0, 400,86.66666666666667"><g id="svgg"><path id="path0" d="M345.375 10.018 C 316.544 20.387,314.218 58.865,341.606 72.374 C 363.081 82.965,389.333 66.258,389.333 42.000 C 389.333 19.651,365.932 2.626,345.375 10.018 M367.475 18.520 C 375.673 22.560,381.129 30.608,381.815 39.674 C 382.382 47.169,382.000 48.000,377.987 48.000 L 374.667 48.000 374.667 40.000 L 374.667 32.000 372.000 32.000 L 369.333 32.000 369.333 42.333 L 369.333 52.667 374.333 52.667 C 380.224 52.667,380.370 52.956,376.824 57.637 C 366.061 71.848,344.041 71.564,334.293 57.089 C 331.577 53.056,331.513 52.667,333.564 52.667 C 335.017 52.667,335.170 52.303,335.736 47.500 L 336.344 42.333 338.061 47.333 C 340.612 54.764,342.774 54.665,345.338 47.000 L 347.123 41.667 347.607 47.167 L 348.092 52.667 350.789 52.667 L 353.487 52.667 353.100 49.167 C 352.887 47.242,352.537 43.267,352.323 40.333 C 351.700 31.806,351.741 31.893,348.493 32.129 L 345.697 32.333 343.658 37.809 L 341.619 43.285 339.575 37.809 L 337.532 32.333 334.432 32.333 C 330.698 32.333,330.717 32.493,333.880 27.603 C 340.906 16.744,355.733 12.735,367.475 18.520 M19.000 28.707 C 7.047 32.216,6.479 48.758,18.145 53.631 C 22.158 55.307,30.279 54.453,31.118 52.267 C 31.930 50.151,29.342 47.224,27.127 47.753 C 22.138 48.946,18.656 47.728,16.984 44.206 C 14.292 38.533,19.724 32.867,26.101 34.696 C 29.152 35.571,29.164 35.567,30.285 33.500 C 31.213 31.790,31.282 32.229,31.309 40.000 C 31.351 51.945,33.961 55.339,42.436 54.464 C 49.922 53.692,51.333 51.090,51.333 38.066 L 51.333 28.667 48.000 28.667 L 44.667 28.667 44.656 37.500 C 44.645 47.314,44.367 48.222,41.370 48.222 C 37.984 48.222,37.687 47.420,37.448 37.635 L 37.230 28.667 34.282 28.667 C 32.660 28.667,31.333 28.953,31.333 29.304 C 31.333 29.655,30.099 29.505,28.583 28.970 C 25.553 27.901,22.071 27.806,19.000 28.707 M57.578 29.279 C 51.043 33.264,52.180 39.704,60.129 43.732 C 62.758 45.064,63.376 45.693,63.209 46.866 C 62.921 48.887,59.969 49.133,56.666 47.411 L 54.072 46.059 52.656 48.351 C 48.686 54.774,64.913 57.330,69.100 50.941 C 72.118 46.335,70.067 42.087,63.124 38.569 C 57.445 35.691,60.268 32.259,66.118 34.928 C 66.944 35.305,67.502 34.946,68.258 33.553 C 68.974 32.230,69.288 32.015,69.307 32.833 C 69.328 33.768,69.931 34.000,72.333 34.000 L 75.333 34.000 75.333 44.000 L 75.333 54.000 78.333 54.000 L 81.333 54.000 81.333 44.000 L 81.333 34.000 84.333 34.000 L 87.333 34.000 87.333 31.333 L 87.333 28.667 78.333 28.667 C 73.056 28.667,69.333 28.930,69.333 29.304 C 69.333 29.655,68.099 29.505,66.583 28.970 C 62.864 27.658,60.079 27.754,57.578 29.279 M94.005 29.062 C 79.457 35.371,86.224 57.274,101.817 54.349 C 103.536 54.027,105.295 52.896,107.488 50.703 L 110.667 47.524 110.667 50.762 L 110.667 54.000 113.576 54.000 L 116.485 54.000 116.909 50.907 C 117.143 49.206,117.333 46.338,117.333 44.534 C 117.333 40.036,118.051 40.857,120.318 47.952 C 122.226 53.924,122.278 54.000,124.403 54.000 C 126.539 54.000,126.573 53.947,128.857 47.167 L 131.159 40.333 131.666 47.167 L 132.172 54.000 142.753 54.000 L 153.333 54.000 153.333 51.333 L 153.333 48.667 149.000 48.667 L 144.667 48.667 144.667 46.333 L 144.667 44.000 149.040 44.000 L 153.414 44.000 153.207 41.500 L 153.000 39.000 148.833 38.802 L 144.667 38.603 144.667 36.302 L 144.667 34.000 149.000 34.000 L 153.333 34.000 153.333 31.333 L 153.333 28.667 146.000 28.667 L 138.667 28.667 138.570 39.833 L 138.473 51.000 137.456 39.833 L 136.439 28.667 133.034 28.667 L 129.630 28.667 127.382 34.833 C 124.775 41.986,124.310 42.699,123.641 40.567 C 123.371 39.705,122.265 36.675,121.183 33.833 L 119.217 28.667 116.025 28.667 C 112.438 28.667,112.053 29.351,111.953 35.917 L 111.906 39.000 110.695 36.333 C 107.543 29.387,100.415 26.282,94.005 29.062 M186.452 28.989 C 179.607 32.560,180.396 39.495,188.090 43.379 C 191.364 45.031,192.047 45.660,191.876 46.864 C 191.584 48.916,188.015 49.200,184.985 47.413 L 182.708 46.069 181.463 47.868 C 179.082 51.309,179.073 51.274,182.788 53.003 C 196.647 59.455,205.487 45.475,191.889 38.611 C 185.999 35.638,188.079 32.670,194.491 34.899 C 196.446 35.579,199.025 31.062,197.309 29.963 C 194.234 27.994,189.223 27.544,186.452 28.989 M228.159 28.890 C 225.067 30.012,221.742 32.840,220.462 35.438 L 219.364 37.667 219.349 33.167 L 219.333 28.667 216.000 28.667 L 212.667 28.667 212.667 37.629 C 212.667 46.134,212.591 46.644,211.185 47.629 C 206.854 50.663,205.333 47.988,205.333 37.333 L 205.333 28.667 202.333 28.667 L 199.333 28.667 199.333 38.910 C 199.333 48.409,199.438 49.287,200.779 50.991 C 205.673 57.214,216.714 55.253,218.719 47.805 L 219.424 45.189 220.613 47.428 C 224.623 54.975,242.352 57.816,240.438 50.604 C 239.584 47.389,239.011 47.019,236.192 47.864 C 230.887 49.453,226.000 46.322,226.000 41.333 C 226.000 36.590,230.681 33.332,235.508 34.717 C 238.707 35.634,239.096 35.515,239.995 33.345 C 241.814 28.954,235.027 26.399,228.159 28.890 M248.333 29.267 C 232.232 36.737,242.797 60.480,259.178 53.635 C 260.773 52.969,261.728 52.851,261.878 53.302 C 262.391 54.839,276.667 54.174,276.667 52.612 L 276.667 51.225 278.954 52.638 C 283.391 55.380,290.888 55.070,293.639 52.031 C 294.744 50.809,294.829 50.817,297.095 52.355 C 303.494 56.697,313.239 54.402,314.387 48.282 C 315.181 44.049,313.177 41.302,307.333 38.617 C 300.923 35.671,303.416 32.714,310.398 34.982 C 311.945 35.484,313.839 32.279,313.113 30.387 C 312.214 28.044,304.745 27.347,301.532 29.306 C 295.216 33.158,296.374 39.803,304.040 43.687 C 307.772 45.578,308.414 46.365,307.309 47.696 C 306.191 49.043,303.754 48.908,300.659 47.330 L 298.038 45.992 297.002 47.996 C 295.663 50.585,295.614 50.545,295.887 47.105 C 296.174 43.494,294.568 41.451,289.333 38.769 C 283.556 35.810,285.461 32.675,291.707 34.862 C 292.831 35.256,293.284 34.919,294.194 33.011 C 295.688 29.878,293.688 28.387,287.947 28.355 C 278.073 28.299,275.565 38.009,284.234 42.728 C 288.733 45.177,289.779 46.327,288.694 47.633 C 287.509 49.062,284.759 48.921,282.091 47.295 C 280.858 46.543,279.768 46.019,279.668 46.131 C 279.569 46.242,278.854 47.383,278.079 48.667 C 277.181 50.156,276.671 50.578,276.669 49.833 C 276.667 48.842,276.015 48.667,272.333 48.667 L 268.000 48.667 268.000 46.333 L 268.000 44.000 272.333 44.000 L 276.667 44.000 276.667 41.333 L 276.667 38.667 272.333 38.667 L 268.000 38.667 268.000 36.333 L 268.000 34.000 272.333 34.000 L 276.667 34.000 276.667 31.333 L 276.667 28.667 269.389 28.667 C 265.277 28.667,262.014 28.948,261.889 29.314 C 261.755 29.704,260.603 29.582,259.000 29.010 C 255.337 27.703,251.504 27.795,248.333 29.267 M154.000 41.333 L 154.000 54.000 157.303 54.000 L 160.606 54.000 160.803 49.638 L 161.000 45.275 164.291 49.638 L 167.581 54.000 171.561 54.000 C 175.280 54.000,175.476 53.924,174.559 52.833 C 174.020 52.192,172.164 49.974,170.436 47.905 L 167.293 44.143 169.279 42.157 C 175.929 35.507,171.537 28.667,160.616 28.667 L 154.000 28.667 154.000 41.333 M261.973 41.500 C 261.948 50.400,261.882 50.881,260.929 49.123 C 260.026 47.457,259.674 47.304,257.789 47.754 C 252.903 48.923,249.302 47.829,247.674 44.680 C 244.618 38.770,250.035 32.765,256.699 34.676 C 259.839 35.577,259.928 35.555,260.788 33.667 C 261.960 31.095,262.002 31.371,261.973 41.500 M353.333 34.333 C 353.333 36.556,353.444 36.667,355.667 36.667 L 358.000 36.667 358.000 44.667 L 358.000 52.667 360.667 52.667 L 363.333 52.667 363.333 44.707 L 363.333 36.747 365.833 36.540 C 368.116 36.351,368.352 36.145,368.542 34.167 L 368.751 32.000 361.042 32.000 L 353.333 32.000 353.333 34.333 M164.044 34.023 C 166.612 35.398,165.245 39.333,162.200 39.333 C 160.827 39.333,160.667 39.019,160.667 36.333 C 160.667 33.136,161.421 32.620,164.044 34.023 M330.939 41.104 C 330.545 46.881,330.328 47.931,329.856 46.333 C 329.278 44.372,329.572 38.273,330.405 34.952 C 331.226 31.679,331.425 33.966,330.939 41.104 M103.167 36.370 C 104.285 37.641,104.667 38.903,104.667 41.333 C 104.667 50.180,93.838 51.266,92.852 42.518 C 92.045 35.352,98.752 31.354,103.167 36.370 " stroke="none" fill="#dd3341" fill-rule="evenodd"></path></g></svg>
