<svg id="svg" xmlns="http://www.w3.org/2000/svg" xmlns:xlink="http://www.w3.org/1999/xlink" width="400" height="222" viewBox="0, 0, 400,222"><g id="svgg"><path id="path0" d="M268.822 8.968 C 221.834 19.191,185.905 63.729,186.030 111.598 C 186.270 204.499,299.061 250.717,364.889 184.889 C 437.966 111.812,369.806 -13.005,268.822 8.968 M326.490 37.594 C 357.431 52.840,376.537 86.985,372.623 120.038 L 371.443 130.000 361.721 130.000 L 352.000 130.000 352.000 104.000 L 352.000 78.000 343.000 78.000 L 334.000 78.000 334.000 111.000 L 334.000 144.000 350.000 144.000 C 368.323 144.000,367.976 143.570,359.859 156.219 C 327.555 206.561,255.161 206.040,221.199 155.221 C 214.575 145.310,214.669 144.000,222.000 144.000 C 227.968 144.000,228.000 143.938,228.027 132.500 C 228.079 110.612,230.078 109.250,236.019 127.056 C 243.637 149.890,250.240 150.279,257.558 128.325 C 263.222 111.335,265.545 111.775,266.394 130.000 L 267.000 143.000 275.705 143.625 L 284.410 144.250 283.252 134.625 C 282.616 129.331,281.586 118.700,280.963 111.000 C 280.340 103.300,279.334 92.725,278.728 87.500 L 277.625 78.000 269.038 78.000 L 260.451 78.000 253.775 96.015 C 248.146 111.206,246.846 113.322,245.481 109.515 C 244.591 107.032,241.565 98.925,238.757 91.500 L 233.650 78.000 224.774 78.000 L 215.897 78.000 219.258 71.500 C 238.266 34.731,288.466 18.858,326.490 37.594 M38.959 58.715 C -3.512 78.492,-4.733 133.789,36.820 155.600 C 50.633 162.851,76.519 163.336,89.210 156.583 L 97.420 152.215 106.165 156.542 C 135.759 171.183,169.685 158.648,171.586 132.369 C 172.793 115.685,168.000 109.421,145.065 97.707 C 119.682 84.742,122.867 70.028,149.123 78.953 C 155.113 80.988,160.349 82.282,160.760 81.827 C 161.854 80.618,170.000 64.306,170.000 63.326 C 170.000 53.872,128.207 51.387,116.146 60.124 C 93.141 76.789,98.025 99.867,127.968 115.983 C 143.317 124.244,144.167 125.053,143.600 130.860 C 142.742 139.646,128.291 140.740,114.549 133.060 C 104.572 127.483,104.895 127.364,98.629 138.976 C 95.668 144.465,95.226 144.654,93.203 141.302 C 87.175 131.316,86.724 131.028,81.125 133.579 C 66.150 140.402,43.483 134.538,37.097 122.188 C 23.771 96.417,51.135 69.228,78.775 80.777 C 83.017 82.550,86.675 84.000,86.902 84.000 C 90.008 84.000,96.286 63.459,93.870 61.204 C 84.734 52.677,54.836 51.321,38.959 58.715 M284.000 85.000 C 284.000 91.833,284.190 92.000,292.000 92.000 L 300.000 92.000 300.000 118.000 L 300.000 144.000 308.000 144.000 L 316.000 144.000 316.000 118.000 L 316.000 92.000 324.000 92.000 C 331.810 92.000,332.000 91.833,332.000 85.000 L 332.000 78.000 308.000 78.000 L 284.000 78.000 284.000 85.000 M213.497 107.079 C 211.404 130.392,211.002 132.095,209.498 124.000 C 207.694 114.288,208.879 99.500,212.424 87.487 C 215.840 75.909,216.013 79.060,213.497 107.079 " stroke="none" fill="#000000" fill-rule="evenodd"></path></g></svg>