<svg id="svg" xmlns="http://www.w3.org/2000/svg" xmlns:xlink="http://www.w3.org/1999/xlink" width="400" height="400" viewBox="0, 0, 400,400"><g id="svgg"><path id="path0" d="M268.822 96.968 C 221.834 107.191,185.905 151.729,186.030 199.598 C 186.270 292.499,299.061 338.717,364.889 272.889 C 437.966 199.812,369.806 74.995,268.822 96.968 M326.490 125.594 C 357.431 140.840,376.537 174.985,372.623 208.038 L 371.443 218.000 361.721 218.000 L 352.000 218.000 352.000 192.000 L 352.000 166.000 343.000 166.000 L 334.000 166.000 334.000 199.000 L 334.000 232.000 350.000 232.000 C 368.323 232.000,367.976 231.570,359.859 244.219 C 327.555 294.561,255.161 294.040,221.199 243.221 C 214.575 233.310,214.669 232.000,222.000 232.000 C 227.968 232.000,228.000 231.938,228.027 220.500 C 228.079 198.612,230.078 197.250,236.019 215.056 C 243.637 237.890,250.240 238.279,257.558 216.325 C 263.222 199.335,265.545 199.775,266.394 218.000 L 267.000 231.000 275.705 231.625 L 284.410 232.250 283.252 222.625 C 282.616 217.331,281.586 206.700,280.963 199.000 C 280.340 191.300,279.334 180.725,278.728 175.500 L 277.625 166.000 269.038 166.000 L 260.451 166.000 253.775 184.015 C 248.146 199.206,246.846 201.322,245.481 197.515 C 244.591 195.032,241.565 186.925,238.757 179.500 L 233.650 166.000 224.774 166.000 L 215.897 166.000 219.258 159.500 C 238.266 122.731,288.466 106.858,326.490 125.594 M38.959 146.715 C -3.512 166.492,-4.733 221.789,36.820 243.600 C 50.633 250.851,76.519 251.336,89.210 244.583 L 97.420 240.215 106.165 244.542 C 135.759 259.183,169.685 246.648,171.586 220.369 C 172.793 203.685,168.000 197.421,145.065 185.707 C 119.682 172.742,122.867 158.028,149.123 166.953 C 155.113 168.988,160.349 170.282,160.760 169.827 C 161.854 168.618,170.000 152.306,170.000 151.326 C 170.000 141.872,128.207 139.387,116.146 148.124 C 93.141 164.789,98.025 187.867,127.968 203.983 C 143.317 212.244,144.167 213.053,143.600 218.860 C 142.742 227.646,128.291 228.740,114.549 221.060 C 104.572 215.483,104.895 215.364,98.629 226.976 C 95.668 232.465,95.226 232.654,93.203 229.302 C 87.175 219.316,86.724 219.028,81.125 221.579 C 66.150 228.402,43.483 222.538,37.097 210.188 C 23.771 184.417,51.135 157.228,78.775 168.777 C 83.017 170.550,86.675 172.000,86.902 172.000 C 90.008 172.000,96.286 151.459,93.870 149.204 C 84.734 140.677,54.836 139.321,38.959 146.715 M284.000 173.000 C 284.000 179.833,284.190 180.000,292.000 180.000 L 300.000 180.000 300.000 206.000 L 300.000 232.000 308.000 232.000 L 316.000 232.000 316.000 206.000 L 316.000 180.000 324.000 180.000 C 331.810 180.000,332.000 179.833,332.000 173.000 L 332.000 166.000 308.000 166.000 L 284.000 166.000 284.000 173.000 M213.497 195.079 C 211.404 218.392,211.002 220.095,209.498 212.000 C 207.694 202.288,208.879 187.500,212.424 175.487 C 215.840 163.909,216.013 167.060,213.497 195.079 " stroke="none" fill="#000000" fill-rule="evenodd"></path></g></svg>